<?xml version="1.0" encoding="UTF-8" standalone="no"?>
<svg
   viewBox="0 0 24 24"
   x="0px"
   y="0px"
   version="1.1"
   id="svg1091"
   width="24"
   height="24"
   xmlns="http://www.w3.org/2000/svg"
   xmlns:svg="http://www.w3.org/2000/svg"
   xmlns:rdf="http://www.w3.org/1999/02/22-rdf-syntax-ns#"
   xmlns:cc="http://creativecommons.org/ns#"
   xmlns:dc="http://purl.org/dc/elements/1.1/">
  <defs
     id="defs1095" />
  <title
     id="title1081">Artboard 61</title>
  <g
     data-name="01"
     id="g1085"
     style="fill:#2779b3;fill-opacity:1"
     transform="translate(-1.155e-4)">
    <path
       d="M 21,2 H 3 A 1,1 0 0 0 2.1807,3.5732 L 9,13.3154 V 21 a 1,1 0 0 0 1.6,0.8 l 4,-3 A 0.9988,0.9988 0 0 0 15,18 V 13.3154 L 21.8193,3.5732 A 1,1 0 0 0 21,2 Z M 13.1807,12.4268 A 1.0027,1.0027 0 0 0 13,13 v 4.5 L 11,19 V 13 A 1.0027,1.0027 0 0 0 10.8193,12.4268 L 4.9209,4 h 14.1582 z"
       id="path1083"
       style="fill:#2779b3;fill-opacity:1" />
  </g>
  <metadata
     id="metadata6532">
    <rdf:RDF>
      <cc:Work
         rdf:about="">
        <dc:title>Artboard 61</dc:title>
      </cc:Work>
    </rdf:RDF>
  </metadata>
</svg>
